<?xml version="1.0" standalone="no"?>
<!DOCTYPE svg PUBLIC "-//W3C//DTD SVG 20010904//EN"
 "http://www.w3.org/TR/2001/REC-SVG-20010904/DTD/svg10.dtd">
<svg version="1.0" xmlns="http://www.w3.org/2000/svg"
 width="2802.000000pt" height="2480.000000pt" viewBox="0 0 2802.000000 2480.000000"
 preserveAspectRatio="xMidYMid meet">

<g transform="translate(0.000000,2480.000000) scale(0.100000,-0.100000)"
fill="#000000" stroke="none">
<path d="M16847 21259 c-118 -28 -209 -120 -236 -238 -5 -25 -5 -194 1 -432 5
-215 8 -393 6 -395 -4 -3 -785 -22 -1998 -49 -382 -8 -884 -20 -1115 -25 -231
-5 -629 -14 -885 -20 -256 -5 -645 -15 -865 -20 -220 -6 -710 -17 -1090 -25
-1439 -32 -1476 -33 -1528 -51 -65 -22 -148 -100 -178 -166 l-24 -53 0 -6750
0 -6750 28 -57 c32 -65 90 -121 156 -151 41 -18 75 -22 296 -29 138 -5 322
-12 410 -16 l160 -7 5 -340 5 -341 32 -49 c21 -33 51 -62 87 -84 36 -21 56
-40 56 -52 0 -10 10 -25 23 -32 22 -15 53 -16 1562 -47 729 -15 1440 -32 1650
-39 l200 -6 3 -566 2 -566 -62 -6 c-102 -8 -171 -58 -189 -135 -22 -101 68
-173 221 -176 l25 -1 3 -1792 2 -1793 60 0 60 0 2 1793 3 1792 145 -3 c129 -3
150 -1 193 17 27 12 51 21 53 21 2 0 4 -814 4 -1810 l0 -1810 60 0 60 0 2
2542 3 2542 195 -2 c107 -2 384 -7 615 -12 231 -6 728 -17 1105 -25 377 -8
883 -19 1125 -25 242 -5 796 -16 1230 -25 894 -18 955 -21 955 -41 0 -7 11
-21 25 -30 32 -21 72 -11 87 20 l10 24 227 4 c213 3 229 4 273 26 55 27 113
90 130 141 8 25 13 154 15 409 3 227 8 372 13 372 6 0 19 9 30 20 20 20 20 33
20 4555 l0 4535 435 0 c373 0 441 2 482 16 94 32 172 110 199 201 12 40 14
319 14 1772 0 954 -4 1740 -9 1756 -26 91 -92 168 -176 207 -50 23 -52 23
-557 26 l-508 3 -2 1012 -3 1012 -28 57 c-38 77 -103 133 -185 158 -63 20 -92
20 -1576 19 -840 -1 -1528 -5 -1549 -10z m3135 -141 c21 -12 49 -38 61 -58
l22 -35 3 -1645 c2 -1207 0 -1656 -9 -1687 -12 -45 -58 -96 -102 -112 -19 -7
-199 -11 -523 -11 l-495 0 -24 -25 -25 -24 0 -5728 c0 -3858 -3 -5740 -10
-5765 -13 -46 -67 -94 -121 -108 -27 -7 -84 -9 -158 -6 -64 4 -372 13 -686 21
-313 8 -808 22 -1100 30 -291 8 -786 21 -1100 30 -313 8 -650 17 -748 20 -98
3 -426 12 -730 20 -304 8 -786 21 -1072 29 -286 9 -779 22 -1095 31 -316 8
-728 20 -915 26 -187 6 -515 14 -730 19 -1058 24 -1227 31 -1272 52 -46 21
-73 53 -91 107 -9 26 -12 1702 -12 6736 0 5984 2 6707 15 6746 20 55 40 77 93
101 39 18 83 20 545 28 276 5 547 12 602 15 55 3 332 10 615 15 283 5 684 14
890 20 206 6 686 17 1065 25 837 18 1429 31 2085 45 1383 30 1734 41 1759 57
l24 15 -7 382 c-4 209 -9 406 -11 436 -7 98 30 176 100 206 24 11 313 13 1574
14 l1543 0 40 -22z m-5864 -15203 c9 -4 12 -216 12 -1018 0 -558 -3 -1017 -6
-1020 -4 -3 -16 -1 -28 5 -12 6 -94 13 -193 16 l-173 5 0 1007 c0 554 3 1009
5 1012 6 6 362 -1 383 -7z m-341 -2145 l134 0 -3 -27 -3 -28 -195 0 c-107 0
-203 3 -214 8 -18 7 -18 8 -1 27 21 23 47 29 104 24 24 -2 104 -4 178 -4z"/>
<path d="M18350 20879 c-150 -29 -273 -154 -315 -317 -39 -149 58 -338 213
-416 117 -59 249 -55 359 11 81 48 116 85 158 165 115 218 -10 484 -257 549
-78 21 -91 21 -158 8z m140 -288 c37 -27 51 -60 47 -109 -11 -107 -135 -147
-206 -66 -95 107 44 260 159 175z"/>
<path d="M17747 19933 c-4 -3 -7 -61 -7 -128 0 -95 3 -125 15 -135 10 -8 50
-11 132 -9 l118 4 0 -710 0 -710 -112 4 c-165 4 -153 16 -153 -149 0 -116 2
-139 16 -144 20 -8 1208 -8 1228 0 14 5 16 28 16 144 0 162 6 154 -119 149
l-76 -4 -3 848 -2 847 -523 0 c-288 0 -527 -3 -530 -7z m768 -983 l0 -705 -95
0 -95 0 -3 695 c-1 382 0 701 3 708 3 9 29 12 97 10 l93 -3 0 -705z"/>
<path d="M9852 19548 c-7 -7 -12 -37 -12 -68 0 -31 5 -61 12 -68 7 -7 38 -12
70 -12 l57 0 -6 -50 c-8 -66 5 -80 73 -80 l53 0 3 -147 3 -148 80 0 80 0 3
184 2 185 -42 43 -42 43 -93 0 -93 0 0 59 c0 44 -4 60 -16 65 -28 11 -120 6
-132 -6z"/>
<path d="M10392 19538 c-9 -9 -12 -76 -12 -239 l0 -228 57 -55 56 -56 77 0
c73 0 77 1 108 33 25 26 32 42 32 73 0 22 -5 45 -12 52 -7 7 -38 12 -70 12
l-58 0 0 48 c0 26 -3 57 -6 70 -6 21 -4 22 59 22 80 0 89 9 85 87 l-3 58 -72
3 -72 3 6 49 c8 70 -3 80 -91 80 -43 0 -77 -5 -84 -12z"/>
<path d="M11343 19434 c-10 -4 -13 -42 -13 -140 l0 -134 -45 0 -45 0 0 130 0
131 -87 -3 -88 -3 -3 -127 -3 -128 -44 0 -44 0 -3 128 -3 127 -80 0 -80 0 -3
-174 -2 -175 62 -63 62 -63 202 0 c111 0 209 3 218 6 13 5 16 23 16 95 l0 89
50 0 50 0 0 -83 c0 -51 5 -88 12 -95 12 -12 134 -17 162 -6 13 5 16 24 16 104
0 113 2 110 -96 110 l-63 0 -3 138 -3 137 -65 2 c-36 1 -71 -1 -77 -3z"/>
<path d="M9844 19217 c-2 -7 -3 -67 -2 -133 l3 -119 75 0 75 0 3 133 3 132
-76 0 c-53 0 -77 -4 -81 -13z"/>
<path d="M16850 17554 c-217 -7 -611 -17 -875 -23 -264 -6 -626 -15 -805 -21
-326 -11 -800 -22 -1670 -40 -256 -5 -503 -12 -550 -15 -47 -3 -292 -10 -545
-15 -253 -6 -692 -17 -975 -25 -283 -8 -634 -17 -780 -21 -203 -4 -270 -9
-287 -20 l-23 -14 0 -4959 0 -4958 21 -19 c18 -16 39 -19 148 -21 69 -2 583
-9 1141 -18 558 -8 1285 -20 1615 -25 750 -13 1623 -27 2580 -40 407 -6 922
-14 1145 -19 262 -6 412 -5 426 1 12 6 27 21 33 35 8 17 11 1402 11 5102 l0
5078 -25 27 c-28 31 17 30 -585 10z m480 -5124 l0 -5010 -137 0 c-76 0 -392 5
-703 10 -311 5 -1148 19 -1860 30 -712 11 -1704 27 -2205 35 -500 8 -1119 17
-1375 20 -256 3 -493 8 -527 11 l-63 6 0 4869 0 4869 23 0 c35 0 1159 28 1577
40 206 5 654 17 995 25 341 8 784 20 985 25 201 5 561 14 800 20 239 5 584 14
765 20 182 5 546 14 810 20 264 6 498 12 520 14 22 1 120 3 218 4 l177 2 0
-5010z"/>
<path d="M16225 14935 c-27 -8 -93 -35 -144 -61 -173 -85 -316 -255 -391 -461
-67 -186 -114 -524 -107 -773 5 -186 17 -243 70 -312 63 -82 172 -115 288 -88
65 15 201 77 263 119 101 70 201 193 257 319 39 85 103 332 87 332 -2 0 -73
-28 -158 -63 l-154 -63 -24 -78 c-30 -99 -89 -165 -173 -191 -66 -21 -100 -11
-125 37 -21 39 -31 176 -16 204 7 14 115 63 335 153 l325 133 11 72 c42 279
46 450 11 561 -26 82 -81 143 -147 163 -52 15 -144 14 -208 -3z m31 -376 c15
-17 20 -40 23 -110 5 -138 14 -127 -169 -203 -88 -36 -165 -66 -170 -66 -10 0
-7 22 16 130 17 76 63 177 96 207 67 61 167 82 204 42z"/>
<path d="M14726 14866 c-83 -34 -151 -66 -153 -72 -4 -15 -243 -2187 -240
-2190 4 -3 309 124 317 133 4 4 22 143 40 308 17 165 35 303 38 307 4 3 24 13
45 22 l38 15 18 -42 c29 -65 203 -452 206 -455 2 -2 367 147 373 153 2 1 -62
134 -142 293 l-145 291 36 43 c178 211 311 550 339 861 l6 78 -33 -14 c-19 -7
-93 -38 -165 -67 l-131 -54 -12 -93 c-32 -246 -122 -446 -255 -570 -61 -58
-120 -92 -133 -79 -4 4 8 140 26 304 17 163 47 431 65 595 21 192 28 297 22
296 -6 0 -78 -29 -160 -63z"/>
<path d="M14070 14020 c-63 -27 -122 -53 -131 -58 -9 -6 -20 -31 -24 -58 -11
-74 -12 -75 -52 -48 -72 48 -173 45 -285 -10 -140 -68 -241 -168 -317 -316
-71 -139 -93 -230 -141 -590 -70 -528 -65 -663 25 -750 31 -30 43 -35 98 -38
46 -3 76 2 120 18 122 46 184 121 315 379 l73 146 -6 -120 c-3 -66 -8 -144
-12 -173 l-5 -53 48 20 c120 47 230 94 236 100 5 4 46 351 93 771 46 421 86
780 89 798 3 17 2 31 -2 31 -4 -1 -59 -23 -122 -49z m-275 -493 c50 -50 55
-146 14 -277 -37 -116 -285 -624 -330 -674 -37 -42 -75 -48 -88 -13 -9 25 -9
30 25 297 43 338 70 482 103 549 47 91 126 148 210 150 25 1 41 -7 66 -32z"/>
<path d="M12645 13472 c-67 -23 -133 -63 -172 -104 -46 -48 -121 -179 -184
-319 l-54 -122 -6 79 c-7 95 -25 141 -68 177 -57 47 -117 49 -215 4 -111 -51
-189 -151 -291 -372 -29 -64 -55 -119 -57 -121 -2 -2 4 69 14 158 10 89 16
163 14 165 -2 2 -74 -24 -160 -59 -147 -59 -156 -65 -161 -93 -8 -48 -175
-1568 -172 -1571 5 -4 310 125 316 135 4 5 24 166 45 358 21 191 45 368 53
392 19 57 221 493 260 563 17 29 42 60 56 68 57 32 57 37 -16 -627 -37 -339
-66 -617 -64 -619 5 -5 299 115 311 126 4 5 26 165 47 357 21 191 45 368 53
393 21 63 230 514 269 578 44 74 97 85 97 20 0 -17 -30 -293 -66 -615 -36
-321 -64 -587 -61 -590 4 -4 300 111 315 122 8 6 134 1194 134 1270 2 146 -39
231 -123 255 -45 13 -55 12 -114 -8z"/>
<path d="M15975 13085 c-38 -14 -112 -45 -162 -70 l-93 -46 -1 -97 c-1 -53 -1
-243 0 -422 2 -179 -1 -336 -6 -349 -8 -21 -17 -9 -80 110 -40 74 -119 232
-178 352 -93 190 -109 217 -130 217 -36 0 -153 -38 -232 -76 -57 -27 -74 -41
-80 -62 -8 -28 -10 -2099 -2 -2107 10 -9 275 84 327 115 l32 20 0 357 c0 397
9 678 21 666 4 -4 24 -55 44 -113 48 -137 92 -241 210 -490 53 -113 101 -215
106 -227 5 -13 12 -23 17 -23 20 0 246 81 283 102 l42 23 -6 800 c-4 440 -7
923 -7 1073 0 312 11 287 -105 247z"/>
<path d="M14435 12409 c-214 -26 -460 -185 -583 -379 -65 -101 -104 -251 -122
-475 -13 -158 -13 -588 0 -773 27 -381 63 -518 159 -605 116 -105 307 -65 591
124 159 105 269 237 310 366 31 99 50 281 50 468 -1 163 -14 372 -24 383 -7 6
-247 -77 -362 -125 -47 -20 -107 -50 -132 -68 l-47 -32 2 -162 c0 -89 4 -165
7 -168 3 -4 44 10 90 30 47 20 90 37 97 37 8 0 10 -26 7 -98 -4 -84 -9 -106
-34 -151 -15 -29 -44 -66 -64 -82 -45 -38 -146 -89 -176 -89 -35 0 -80 44 -93
92 -60 228 -46 884 24 1099 9 25 28 58 44 73 39 37 153 79 184 67 35 -13 82
-72 103 -127 9 -27 19 -51 20 -53 11 -14 300 108 322 136 7 11 12 50 12 104 0
297 -133 438 -385 408z"/>
<path d="M13435 12026 c-56 -24 -157 -62 -227 -85 l-126 -42 -9 -127 c-4 -70
-6 -329 -3 -577 3 -247 5 -680 5 -962 0 -491 1 -511 18 -501 10 5 82 33 160
62 168 62 249 101 275 130 17 20 18 32 10 181 -5 88 -7 566 -4 1063 3 496 5
902 3 901 -1 0 -47 -20 -102 -43z"/>
<path d="M12453 11600 c-157 -41 -325 -145 -426 -263 -186 -218 -294 -537
-258 -764 18 -119 46 -179 115 -249 85 -87 140 -100 299 -69 208 40 296 0 305
-139 7 -103 -45 -194 -139 -241 -95 -49 -190 -21 -205 61 -3 19 -10 34 -14 34
-18 0 -326 -122 -357 -141 l-35 -22 4 -86 c9 -184 106 -301 279 -337 225 -47
518 80 684 296 125 163 205 402 205 613 0 164 -35 259 -128 355 -95 97 -215
135 -355 113 -45 -8 -105 -16 -133 -18 -47 -4 -53 -2 -77 27 -22 25 -27 42
-27 84 0 97 38 166 118 217 103 65 212 21 212 -86 0 -19 5 -35 11 -35 59 0
339 118 371 157 18 22 23 203 8 272 -6 31 -23 75 -36 98 -31 54 -103 117 -152
131 -58 18 -187 14 -269 -8z"/>
</g>
</svg>
